<svg width="24" height="14" viewBox="0 0 24 14" fill="none" xmlns="http://www.w3.org/2000/svg">
<path d="M20.3273 8.64668C21.1107 9.42493 21.9376 10.1571 22.6403 11.0138C22.9507 11.3945 23.2446 11.7874 23.4694 12.2292C23.788 12.8573 23.4995 13.5484 22.9459 13.5859L19.5051 13.5843C18.6176 13.6592 17.9097 13.2958 17.3144 12.6784C16.838 12.1847 16.3968 11.6593 15.9387 11.1489C15.7509 10.9404 15.5544 10.7441 15.3196 10.5889C14.8499 10.2787 14.4421 10.3737 14.1737 10.8721C13.9003 11.3791 13.8383 11.9404 13.8114 12.5054C13.7746 13.3297 13.5297 13.5465 12.7158 13.5842C10.9765 13.6677 9.32574 13.4 7.79223 12.5072C6.44024 11.7203 5.39188 10.6092 4.47933 9.35143C2.70272 6.90231 1.34211 4.21105 0.119284 1.44442C-0.155975 0.8211 0.0453374 0.486512 0.721331 0.474638C1.84382 0.452485 2.96617 0.454034 4.09 0.473089C4.54622 0.479894 4.84824 0.7461 5.02441 1.1846C5.63172 2.70388 6.37483 4.14934 7.30758 5.48914C7.55599 5.84584 7.8093 6.20258 8.16994 6.45363C8.56897 6.73161 8.87278 6.63948 9.06049 6.18723C9.1796 5.90047 9.23177 5.5916 9.25862 5.28451C9.34756 4.2279 9.35927 3.17307 9.20331 2.12017C9.10754 1.46306 8.74376 1.03765 8.09927 0.913324C7.77041 0.849917 7.81935 0.725403 7.97859 0.534431C8.25515 0.205052 8.51527 0 9.03378 0H12.9225C13.5347 0.122919 13.6706 0.402736 13.7544 1.02944L13.7578 5.42414C13.7511 5.66674 13.8769 6.38674 14.3064 6.5473C14.6501 6.66163 14.8767 6.38182 15.083 6.16006C16.0141 5.1547 16.6786 3.96653 17.2722 2.73622C17.5357 2.19522 17.7622 1.63342 17.9818 1.07205C18.1444 0.655519 18.3997 0.450561 18.8608 0.459619L22.6035 0.462998C22.7145 0.462998 22.8267 0.464641 22.9342 0.483367C23.5649 0.592722 23.7377 0.868737 23.5429 1.4953C23.236 2.47832 22.6388 3.29754 22.055 4.12052C21.4308 4.99916 20.7633 5.84776 20.1444 6.73161C19.5757 7.53882 19.6209 7.94569 20.3273 8.64668Z" fill="#A4926F"/>
</svg>
