<svg width="21" height="16" viewBox="0 0 21 16" fill="none" xmlns="http://www.w3.org/2000/svg">
<path fill-rule="evenodd" clip-rule="evenodd" d="M20.1858 4.02631C20.1858 4.02631 19.9878 2.62156 19.3812 2.00308C18.6114 1.19088 17.7486 1.18709 17.3532 1.13996C14.5206 0.933594 10.2718 0.933594 10.2718 0.933594H10.2629C10.2629 0.933594 6.01405 0.933594 3.18148 1.13996C2.7855 1.18709 1.92333 1.19088 1.15288 2.00308C0.546258 2.62172 0.348902 4.02631 0.348902 4.02631C0.348902 4.02631 0.146484 5.67632 0.146484 7.32555V8.8723C0.146484 10.5222 0.348902 12.1715 0.348902 12.1715C0.348902 12.1715 0.546258 13.5763 1.15288 14.1948C1.92333 15.007 2.93478 14.9815 3.38516 15.0663C5.0045 15.223 10.2673 15.2714 10.2673 15.2714C10.2673 15.2714 14.5206 15.265 17.3532 15.0587C17.7486 15.0109 18.6114 15.0071 19.3812 14.1949C19.9878 13.5763 20.1858 12.1717 20.1858 12.1717C20.1858 12.1717 20.3882 10.5223 20.3882 8.8723V7.32555C20.3882 5.67632 20.1858 4.02631 20.1858 4.02631ZM8.17738 10.7466L8.17675 5.01894L13.6458 7.89263L8.17738 10.7466Z" fill="#A4926F"/>
</svg>
